<?xml version="1.0" encoding="UTF-8"?>
<svg id="Layer_1" data-name="Layer 1" xmlns="http://www.w3.org/2000/svg" viewBox="0 0 513.6 42.4">
  <defs>
    <style>
      .cls-1 {
        fill: #eb1c24;
      }
    </style>
  </defs>
  <path d="M513.6,31.13c-3.06,10.13-12.85,11.85-22.29,11.01-7.67-.68-14.2-5.48-14.64-13.64-.05-.99-.01-.62.71-.72,1.55-.21,11.33-.87,11.75-.45s-.11,4.28,3.43,5.91c6.18,2.85,11.7-3.31,6.84-6.35-6.26-3.92-20.29-2.14-21.24-13.78-1.24-15.2,26.77-16.88,32.49-6.56.77,1.4,2.72,5.94.32,6.39-2.89.54-7.32-.33-10.5.51-.46-.13-.51-1.87-.88-2.56-3.38-6.26-14.36-.64-7.22,2.42s18.41,2.07,21.24,12.07v5.75Z"/>
  <path d="M227.55.96l6.71,22.99,6.24-22.99h16.54v39.98c0,.05-.67.72-.72.72h-9.59c-.05,0-.72-.67-.72-.72V14.37l-7.26,27.23-9.21.08-7.99-29.23v29.21h-10.55V.96h16.54Z"/>
  <path d="M461.09.96c11.86,1.4,14.22,16.26,4.03,21.74-.94.51-2.48.41-2.83,1.24l2.38.74c4.84,4.59,7.08,11.17,10.09,16.98h-14.15c-2.74-3.02-6.76-14.95-10.28-16.07-.95-.3-1.93-.24-2.9-.21v16.28h-12.23c-.05,0-.72-.67-.72-.72V1.68c0-.13.56-.48.72-.72,8.18.7,17.91-.95,25.9,0ZM447.42,17.24c3.83,0,12.83.94,10.93-5.41-.19-.63-2.11-2.25-2.54-2.25h-8.39v7.66Z"/>
  <path d="M164.01,35.91c-13.58,9.21-37.16,10.51-41.11-9.47-1.75-8.87,1.02-19.8,9.76-23.99,7.45-3.57,22.59-3.72,27.99,3.53.62.83,3.24,5.29,2.12,6.04-.49.33-10.93,2.29-11.5,2.19s-1.66-4.16-5.71-4.65c-8.23-.98-10.58,5.72-10.32,12.69.33,8.59,5.27,12.73,13.79,9.96,3.41-1.11,3.84-1.58,3.46-5.4h-8.15v-8.62h19.66v17.72Z"/>
  <path d="M205.25.96v8.38c0,.05-.67.72-.72.72h-19.9v5.75h19.18v8.62h-19.18v7.66h21.1v9.58h-33.81c-.05,0-.72-.67-.72-.72V1.68c0-.05.67-.72.72-.72h33.33Z"/>
  <path d="M406.18,10.06v5.75h19.18v8.62h-19.18v7.66h21.58v8.86c0,.05-.67.72-.72.72h-33.81V.96h33.33c.05,0,.72.67.72.72v7.66c0,.05-.67.72-.72.72h-20.38Z"/>
  <path d="M308.83,27.77c2.2.37,10.53-1.32,11.93-.42.28.18.57,2.45.92,3.15,3.1,6.24,13.88,3.05,11.07-1.95-2.57-4.57-16.17-3.16-20.96-10.68-4.1-6.44-.17-13.91,6.5-16.34,9.2-3.35,25.77-1.67,25.83,10.93-.64.87-9.54.29-11.48.88-.97-.34-.74-2.41-1.73-3.55-2.43-2.84-10.12-2.33-8.57,2.33.46,1.37,13.43,3.95,16.22,5.35,11.68,5.86,8.13,20.96-3.82,23.94-11,2.74-25.8.22-25.9-13.65Z"/>
  <path d="M262.32,41.66l15.09-40.24c1.17-1.19,11.14-.05,13.46-.5l15.57,40.74h-12.71c-1.25-1.89-1.94-4.46-2.18-6.68l-14.07-.05-2.45,6.73h-12.71ZM280.06,25.86h8.63c-1.13-1.5-3.43-12.74-4.08-12.93-.97-.29-.66.51-.84,1.05-1.31,3.93-2.08,8.06-3.71,11.88Z"/>
  <path d="M387.48.96v9.82c0,.05-.67.72-.72.72h-11.75v29.45c0,.05-.67.72-.72.72h-12.23V11.49h-12.23c-.05,0-.72-.67-.72-.72V.96h38.36Z"/>
  <path class="cls-1" d="M117.97.96v9.82c0,.05-.67.72-.72.72h-7.43l13.91,30.17h-31.65l3.84-9.1h13.91l-8.87-17.71-12.71,26.81h-10.07l13.91-30.17h-7.67V.96h33.57Z"/>
  <path d="M23.56,13.34c-.62-2.85-1.94-4.88-5.09-5.21-5-.52-7.58,3.67-2.54,5.41,6.66,2.3,16.86,2.33,20.05,10.15,3.85,9.43-4.13,17.44-13.26,18.39-10.99,1.14-22.24-1.33-22.72-14.31,2.2.37,10.53-1.32,11.93-.42.21.14.69,3.13,1.96,4.51,4.25,4.59,12.85.94,9.83-3.59S6.26,25.66,2.31,16.61C-1.24,8.45,5.09,2.07,12.83.6,18.95-.56,28.71,0,32.81,5.31c1.13,1.46,4.14,7.13,1.48,7.62-2.9.53-7.52-.21-10.72.41Z"/>
  <path d="M78.65.96v9.82c0,.05-.67.72-.72.72h-11.75v29.45c0,.05-.67.72-.72.72h-12.23V11.49h-12.23c-.05,0-.72-.67-.72-.72V.96h38.36Z"/>
</svg>